<?xml version="1.0" encoding="UTF-8"?>
<svg id="Layer_2" data-name="Layer 2" xmlns="http://www.w3.org/2000/svg" viewBox="0 0 1653.46 389.81">
  <defs>
    <style>
      .cls-1 {
        fill: #fff2e2;
        fill-rule: evenodd;
      }
    </style>
  </defs>
  <g id="Layer_1-2" data-name="Layer 1">
    <path class="cls-1" d="M817.5.03c50.88.7,116.92,12.44,183.04,27.24,68.14,15.24,144.24,35.56,218.33,56.49,153.35,43.35,288.83,86.53,357.23,104.22,55.26,14.28,88.37,70.24,74,125.06-14.36,54.82-70.76,87.67-126.02,73.48-68.92-17.78-221.92-65.86-361.87-105.44-72.6-20.49-144.42-39.59-207.12-53.6-64.72-14.45-112.62-21.89-140.3-22.24-25.57-.35-78.73,7.71-153.61,24.43-71.55,15.94-153.7,37.66-232.08,59.73-78.21,21.98-151.68,44.14-205.72,60.78-26.97,8.32-49.04,15.24-64.37,20.06-7.62,2.45-13.57,4.29-17.6,5.6-2.01.61-3.59,1.14-4.64,1.49s-.96.26-1.23.35c-.18,0-.35.09-.44.18,0,0-.26,0-.44.18-.18,0-.53.18-.79.26-.88.26-19.62,3.94-38.01,4.29-27.06-2.01-63.14-16.29-83.46-53.6C-3.27,300.15-.12,273.53,1.11,265.21c1.58-10.77,4.55-18.92,6.04-22.59.88-2.28,1.75-4.2,2.45-5.69.35-.79.7-1.49,1.05-2.19l.7-1.4v-.26c.09,0,.26-.26.26-.26,14.01-26.71,38.18-44.84,65.33-51.93.35-.09.61-.18.96-.26,4.2-1.31,10.33-3.33,18.22-5.78,15.68-4.99,38.27-12.09,65.86-20.58,55.09-16.99,130.32-39.59,210.62-62.18,80.13-22.6,166.31-45.37,243.2-62.53C689.29,12.99,764.52-.67,817.5.03ZM195.09,327.13h0v-.18.18ZM195.18,326.95l.18-.26c0-.18.18-.35.26-.44.18-.26.26-.61.44-.96.35-.7.7-1.4,1.05-2.19,0-.09,0-.26.18-.35-.61,1.4-1.31,2.8-2.01,4.2h-.09Z"/>
  </g>
</svg>