<?xml version="1.0" encoding="UTF-8"?>
<svg id="Layer_1" xmlns="http://www.w3.org/2000/svg" version="1.1" viewBox="0 0 1888 445">
  <!-- Generator: Adobe Illustrator 30.2.1, SVG Export Plug-In . SVG Version: 2.1.1 Build 1)  -->
  <defs>
    <style>
      .st0 {
        fill: #eb9a89;
      }
    </style>
  </defs>
  <path class="st0" d="M921.1,0c61.8.8,142,15.1,222.3,33.1,82.8,18.5,175.2,43.1,265.2,68.6,186.3,52.7,350.8,105.1,434,126.6,67.1,17.3,107.3,85.3,89.9,151.9-17.4,66.6-86,106.5-153.1,89.2-83.8-21.6-269.6-80-439.6-128.1-88.2-24.9-175.5-48.1-251.6-65.1-78.7-17.6-136.8-26.6-170.4-27-31.1-.4-95.7,9.4-186.6,29.6-86.9,19.4-186.7,45.7-281.9,72.5-95,26.7-184.3,53.6-249.9,73.8-32.8,10.1-59.6,18.5-78.2,24.4-9.3,2.9-16.5,5.2-21.4,6.8-2.4.8-4.3,1.4-5.6,1.8-.6.2-1.1.4-1.5.5-.2,0-.4.1-.6.2,0,0-.3,0-.6.2-.2,0-.6.2-1,.3-1.1.3-23.9,4.8-46.2,5.2-32.9-2.4-76.7-19.8-101.3-65.1-19-35-15.2-67.4-13.7-77.4,1.9-13.1,5.6-22.9,7.4-27.4,1.1-2.7,2.1-5.1,3-7,.4-.9.9-1.9,1.3-2.6l.9-1.7v-.3c.1,0,.3-.3.3-.3,17-32.5,46.4-54.5,79.4-63.1.4-.1.8-.2,1.2-.4,5.1-1.6,12.6-4,22.1-7,19.1-6,46.5-14.7,80-25,66.9-20.6,158.3-48.1,255.8-75.5,97.3-27.4,202.1-55.1,295.4-75.9C765.4,15.8,856.8-.8,921.1,0Z"/>
</svg>