<svg width="21" height="21" viewBox="0 0 21 21" fill="none" xmlns="http://www.w3.org/2000/svg">
<path d="M7.94913 0.147259C8.06165 0.185539 8.17158 0.23107 8.27818 0.28356L9.56098 0.91511C9.90908 1.08651 10.3171 1.08651 10.6652 0.91511L11.948 0.28356C13.3105 -0.3873 14.959 0.17346 15.6298 1.53604L15.7033 1.69837L15.7661 1.86511L16.2266 3.21871C16.3516 3.58608 16.6401 3.87458 17.0074 3.99955L18.361 4.46001C19.7989 4.94913 20.568 6.51127 20.0789 7.94913C20.0406 8.06165 19.9951 8.17158 19.9426 8.27818L19.311 9.56098C19.1396 9.90908 19.1396 10.3171 19.311 10.6652L19.9426 11.948C20.6135 13.3105 20.0527 14.959 18.6901 15.6298C18.5835 15.6823 18.4736 15.7279 18.361 15.7661L17.0074 16.2266C16.6401 16.3516 16.3516 16.6401 16.2266 17.0074L15.7661 18.361C15.277 19.7989 13.7149 20.568 12.277 20.0789C12.1645 20.0406 12.0546 19.9951 11.948 19.9426L10.6652 19.311C10.3171 19.1396 9.90908 19.1396 9.56098 19.311L8.27818 19.9426C6.91561 20.6135 5.26717 20.0527 4.59631 18.6901C4.54381 18.5835 4.49828 18.4736 4.46001 18.361L3.99955 17.0074C3.87458 16.6401 3.58608 16.3516 3.21871 16.2266L1.86511 15.7661C0.42724 15.277 -0.341861 13.7149 0.147259 12.277C0.185539 12.1645 0.23107 12.0546 0.28356 11.948L0.91511 10.6652C1.08651 10.3171 1.08651 9.90908 0.91511 9.56098L0.28356 8.27818C-0.3873 6.91561 0.17346 5.26717 1.53604 4.59631C1.64267 4.54381 1.75259 4.49828 1.86511 4.46001L3.21871 3.99955C3.58608 3.87458 3.87458 3.58608 3.99955 3.21871L4.46001 1.86511C4.94913 0.42724 6.51127 -0.341861 7.94913 0.147259ZM5.88009 2.34818L5.41963 3.70178C5.1447 4.51 4.51 5.1447 3.70178 5.41963L2.34818 5.88009C2.29704 5.89749 2.24708 5.91819 2.19861 5.94205C1.57925 6.24698 1.32436 6.99627 1.6293 7.61563L2.26085 8.89838C2.63793 9.66428 2.63793 10.5619 2.26085 11.3278L1.6293 12.6105C1.60544 12.659 1.58474 12.709 1.56734 12.7601C1.34501 13.4137 1.69461 14.1237 2.34818 14.3461L3.70178 14.8065C4.51 15.0815 5.1447 15.7162 5.41963 16.5244L5.88009 17.878C5.89749 17.9291 5.91819 17.9791 5.94205 18.0275C6.24698 18.6469 6.99627 18.9018 7.61563 18.5969L8.89838 17.9653C9.66428 17.5882 10.5619 17.5882 11.3278 17.9653L12.6105 18.5969C12.659 18.6207 12.709 18.6414 12.7601 18.6588C13.4137 18.8811 14.1237 18.5315 14.3461 17.878L14.8065 16.5244C15.0815 15.7162 15.7162 15.0815 16.5244 14.8065L17.878 14.3461C17.9291 14.3287 17.9791 14.308 18.0275 14.2841C18.6469 13.9792 18.9018 13.2299 18.5969 12.6105L17.9653 11.3278C17.5882 10.5619 17.5882 9.66428 17.9653 8.89838L18.5969 7.61563C18.6207 7.56717 18.6414 7.5172 18.6588 7.46606C18.8811 6.81248 18.5315 6.10242 17.878 5.88009L16.5244 5.41963C15.7162 5.1447 15.0815 4.51 14.8065 3.70178L14.3461 2.34818L14.3175 2.27239L14.2841 2.19861L14.2219 2.0868C13.886 1.54958 13.1912 1.34342 12.6105 1.6293L11.3278 2.26085C10.5619 2.63793 9.66428 2.63793 8.89838 2.26085L7.61563 1.6293C7.56717 1.60544 7.5172 1.58474 7.46606 1.56734C6.81248 1.34501 6.10242 1.69461 5.88009 2.34818ZM8.16348 12.502L13.5828 7.08274C13.8757 6.78985 14.3505 6.78985 14.6434 7.08274C14.9097 7.34901 14.9339 7.76567 14.716 8.05928L14.6434 8.14338L8.64338 14.1434C8.35758 14.4293 7.90323 14.4336 7.61203 14.1713L7.5369 14.0932L5.0369 11.0932C4.77173 10.775 4.81472 10.3021 5.13293 10.0369C5.42221 9.79588 5.83935 9.80948 6.11204 10.053L6.18923 10.133L8.16348 12.502Z" fill="#272727"/>
</svg>
