<?xml version="1.0" encoding="UTF-8"?>
<svg id="Layer_1" xmlns="http://www.w3.org/2000/svg" version="1.1" viewBox="0 0 1512 445">
  <!-- Generator: Adobe Illustrator 30.2.1, SVG Export Plug-In . SVG Version: 2.1.1 Build 1)  -->
  <defs>
    <style>
      .st0 {
        fill-rule: evenodd;
      }

      .st0, .st1 {
        fill: #fff2e2;
      }
    </style>
  </defs>
  <path class="st0" d="M750.5,0c58.1.8,133.5,14.2,209,31.1,77.8,17.4,164.7,40.6,249.3,64.5,175.1,49.5,329.8,98.8,407.9,119,63.1,16.3,100.9,80.2,84.5,142.8-16.4,62.6-80.8,100.1-143.9,83.9-78.7-20.3-253.4-75.2-413.2-120.4-82.9-23.4-164.9-45.2-236.5-61.2-73.9-16.5-128.6-25-160.2-25.4-29.2-.4-89.9,8.8-175.4,27.9-81.7,18.2-175.5,43-265,68.2-89.3,25.1-173.2,50.4-234.9,69.4-30.8,9.5-56,17.4-73.5,22.9-8.7,2.8-15.5,4.9-20.1,6.4-2.3.7-4.1,1.3-5.3,1.7s-1.1.3-1.4.4c-.2,0-.4.1-.5.2,0,0-.3,0-.5.2-.2,0-.6.2-.9.3-1,.3-22.4,4.5-43.4,4.9-30.9-2.3-72.1-18.6-95.3-61.2-17.9-32.9-14.3-63.3-12.9-72.8,1.8-12.3,5.2-21.6,6.9-25.8,1-2.6,2-4.8,2.8-6.5.4-.9.8-1.7,1.2-2.5l.8-1.6v-.3c.1,0,.3-.3.3-.3,16-30.5,43.6-51.2,74.6-59.3.4-.1.7-.2,1.1-.3,4.8-1.5,11.8-3.8,20.8-6.6,17.9-5.7,43.7-13.8,75.2-23.5,62.9-19.4,148.8-45.2,240.5-71,91.5-25.8,189.9-51.8,277.7-71.4C604.1,14.8,690-.8,750.5,0ZM39.8,373.5h0v-.2.2ZM39.9,373.3l.2-.3c0-.2.2-.4.3-.5.2-.3.3-.7.5-1.1.4-.8.8-1.6,1.2-2.5,0-.1,0-.3.2-.4-.7,1.6-1.5,3.2-2.3,4.8h-.1Z"/>
  <rect class="st1" x="-20.3" y="-19.7" width="2034.1" height="211.2"/>
</svg>