<svg width="1512" height="193" viewBox="0 0 1512 193" fill="none" xmlns="http://www.w3.org/2000/svg">
<path fill-rule="evenodd" clip-rule="evenodd" d="M765.481 0.0286044C823.6 0.787807 898.954 14.2323 974.445 31.1101C1052.29 48.514 1139.15 71.6727 1223.74 95.5829C1398.88 145.087 1553.54 194.398 1631.67 214.557C1694.73 230.832 1732.57 294.754 1716.18 357.339C1699.78 419.924 1635.36 457.473 1572.3 441.207C1493.56 420.89 1318.89 365.98 1159.09 320.815C1076.22 297.39 994.164 275.597 922.567 259.59C848.625 243.058 793.956 234.616 762.37 234.203C733.134 233.825 672.432 243 586.962 262.06C505.278 280.275 411.484 305.013 321.949 330.215C232.644 355.352 148.703 380.608 87.0117 399.605C56.1978 409.093 31.0009 417.022 13.5391 422.544C4.81886 425.302 -1.98209 427.456 -6.58063 428.925C-8.87697 429.659 -10.6469 430.237 -11.8353 430.618C-12.4071 430.801 -12.9112 430.946 -13.2411 431.052C-13.3949 431.102 -13.5928 431.178 -13.7712 431.235C-13.7712 431.235 -14.0606 431.32 -14.3013 431.395C-14.4613 431.445 -14.9095 431.58 -15.2001 431.67C-16.2257 431.958 -37.6293 436.208 -58.5969 436.541C-89.5096 434.282 -130.676 417.956 -153.849 375.339C-171.754 342.396 -168.131 312 -166.732 302.587C-164.901 290.28 -161.482 281.017 -159.818 276.811C-158.799 274.238 -157.805 272.027 -156.983 270.27C-156.564 269.375 -156.16 268.533 -155.784 267.777L-154.978 266.176L-154.84 265.925L-154.701 265.673C-138.735 235.142 -111.121 214.483 -80.0533 206.346C-79.6953 206.232 -79.3117 206.127 -78.924 206.003C-74.1337 204.473 -67.1056 202.23 -58.1359 199.394C-40.1877 193.717 -14.4005 185.617 17.0652 175.928C79.948 156.565 165.842 130.73 257.557 104.914C349.043 79.163 447.506 53.1181 535.222 33.5572C619.133 14.8452 705.005 -0.759505 765.481 0.0286044ZM54.7925 373.486L54.8386 373.418L54.8616 373.326L54.7925 373.486ZM54.8616 373.326L55.0229 373.052C55.1094 372.884 55.2107 372.699 55.2995 372.526C55.4766 372.179 55.6431 371.803 55.8296 371.428C56.2036 370.676 56.612 369.846 57.028 368.958C57.0842 368.837 57.1318 368.694 57.1893 368.569C56.4494 370.16 55.68 371.753 54.8616 373.326Z" fill="#FFF2E2"/>
</svg>
