<?xml version="1.0" encoding="UTF-8"?>
<svg id="Layer_1" xmlns="http://www.w3.org/2000/svg" version="1.1" viewBox="0 0 1512 181.6">
  <!-- Generator: Adobe Illustrator 30.2.1, SVG Export Plug-In . SVG Version: 2.1.1 Build 1)  -->
  <defs>
    <style>
      .st0 {
        fill-rule: evenodd;
      }

      .st0, .st1 {
        fill: #fff2e2;
      }
    </style>
  </defs>
  <path class="st0" d="M746.8-194.9c50.9.7,116.9,12.4,183,27.2,68.1,15.2,144.2,35.6,218.3,56.5,153.3,43.4,288.8,86.5,357.2,104.2,55.3,14.3,88.4,70.2,74,125.1-14.4,54.8-70.8,87.7-126,73.5-68.9-17.8-221.9-65.9-361.9-105.4-72.6-20.5-144.4-39.6-207.1-53.6-64.7-14.5-112.6-21.9-140.3-22.2-25.6-.4-78.7,7.7-153.6,24.4-71.6,15.9-153.7,37.7-232.1,59.7-78.2,22-151.7,44.1-205.7,60.8-27,8.3-49,15.2-64.4,20.1-7.6,2.5-13.6,4.3-17.6,5.6-2,.6-3.6,1.1-4.6,1.5s-1,.3-1.2.4c-.2,0-.4,0-.4.2,0,0-.3,0-.4.2-.2,0-.5.2-.8.3-.9.3-19.6,3.9-38,4.3-27.1-2-63.1-16.3-83.5-53.6-15.7-28.8-12.5-55.4-11.3-63.8,1.6-10.8,4.6-18.9,6-22.6.9-2.3,1.8-4.2,2.5-5.7.4-.8.7-1.5,1.1-2.2l.7-1.4v-.3c0,0,.3-.3.3-.3C-45.1,11.2-20.9-6.9,6.2-14c.4,0,.6-.2,1-.3,4.2-1.3,10.3-3.3,18.2-5.8,15.7-5,38.3-12.1,65.9-20.6,55.1-17,130.3-39.6,210.6-62.2,80.1-22.6,166.3-45.4,243.2-62.5,73.5-16.6,148.7-30.2,201.7-29.5ZM124.4,132.2h0v-.2.2ZM124.4,132l.2-.3c0-.2.2-.4.3-.4.2-.3.3-.6.4-1,.4-.7.7-1.4,1.1-2.2,0,0,0-.3.2-.4-.6,1.4-1.3,2.8-2,4.2h0Z"/>
  <rect class="st1" x="-170.1" y="-444.4" width="2034.1" height="211.2"/>
</svg>