<?xml version="1.0" encoding="UTF-8"?>
<svg id="Layer_1" xmlns="http://www.w3.org/2000/svg" version="1.1" viewBox="0 0 1888 467.2">
  <!-- Generator: Adobe Illustrator 30.2.1, SVG Export Plug-In . SVG Version: 2.1.1 Build 1)  -->
  <defs>
    <style>
      .st0, .st1 {
        fill: #9f2322;
      }

      .st1 {
        fill-rule: evenodd;
      }
    </style>
  </defs>
  <path class="st1" d="M955.7,10.4c64.6.8,148.4,15.8,232.4,34.6,86.6,19.4,183.2,45.1,277.2,71.7,194.8,55,366.7,109.9,453.6,132.3,70.1,18.1,112.2,89.2,94,158.8-18.2,69.6-89.9,111.3-160,93.3-87.6-22.6-281.8-83.7-459.5-133.9-92.2-26-183.4-50.3-263-68.1-82.2-18.4-143-27.8-178.1-28.2-32.5-.4-100,9.8-195.1,31-90.8,20.3-195.1,47.8-294.7,75.8-99.3,28-192.7,56-261.3,77.2-34.3,10.6-62.3,19.4-81.7,25.5-9.7,3.1-17.3,5.5-22.4,7.1-2.6.8-4.5,1.5-5.8,1.9-.6.2-1.2.4-1.6.5-.2,0-.4.1-.6.2,0,0-.3,0-.6.2-.2,0-.7.2-1,.3-1.1.3-24.9,5-48.3,5.4-34.4-2.5-80.2-20.7-105.9-68.1-19.9-36.6-15.9-70.4-14.3-80.9,2-13.7,5.8-24,7.7-28.7,1.1-2.9,2.2-5.3,3.2-7.3.5-1,.9-1.9,1.3-2.8l.9-1.8.2-.3.2-.3c17.8-34,48.5-56.9,83-66,.4-.1.8-.2,1.3-.4,5.3-1.7,13.1-4.2,23.1-7.3,20-6.3,48.6-15.3,83.6-26.1,69.9-21.5,165.4-50.3,267.4-79,101.7-28.6,211.2-57.6,308.8-79.3,93.3-20.8,188.8-38.2,256-37.3ZM165.4,425.7h0c0,0,0-.2,0-.2v.2ZM165.5,425.5l.2-.3c0-.2.2-.4.3-.6.2-.4.4-.8.6-1.2.4-.8.9-1.8,1.3-2.7,0-.1.1-.3.2-.4-.8,1.8-1.7,3.5-2.6,5.3Z"/>
  <rect class="st0" y="341.8" width="1888" height="125.4"/>
  <rect class="st0" x="485.7" y="212" width="874.2" height="158.1"/>
</svg>