<svg width="1512" height="445" viewBox="0 0 1512 445" fill="none" xmlns="http://www.w3.org/2000/svg">
<path fill-rule="evenodd" clip-rule="evenodd" d="M750.481 0.0286044C808.6 0.787807 883.954 14.2323 959.445 31.1101C1037.29 48.514 1124.15 71.6727 1208.74 95.5829C1383.88 145.087 1538.54 194.398 1616.67 214.557C1679.73 230.832 1717.57 294.754 1701.18 357.339C1684.78 419.924 1620.36 457.473 1557.3 441.207C1478.56 420.89 1303.89 365.98 1144.09 320.815C1061.22 297.39 979.164 275.597 907.567 259.59C833.625 243.058 778.956 234.616 747.37 234.203C718.134 233.825 657.432 243 571.962 262.06C490.278 280.275 396.484 305.013 306.949 330.215C217.644 355.352 133.703 380.608 72.0117 399.605C41.1978 409.093 16.0009 417.022 -1.46094 422.544C-10.1811 425.302 -16.9821 427.456 -21.5806 428.925C-23.877 429.659 -25.6469 430.237 -26.8353 430.618C-27.4071 430.801 -27.9112 430.946 -28.2411 431.052C-28.3949 431.102 -28.5928 431.178 -28.7712 431.235C-28.7712 431.235 -29.0606 431.32 -29.3013 431.395C-29.4613 431.445 -29.9095 431.58 -30.2001 431.67C-31.2257 431.958 -52.6293 436.208 -73.5969 436.541C-104.51 434.282 -145.676 417.956 -168.849 375.339C-186.754 342.396 -183.131 312 -181.732 302.587C-179.901 290.28 -176.482 281.017 -174.818 276.811C-173.799 274.238 -172.805 272.027 -171.983 270.27C-171.564 269.375 -171.16 268.533 -170.784 267.777L-169.978 266.176L-169.84 265.925L-169.701 265.673C-153.735 235.142 -126.121 214.483 -95.0533 206.346C-94.6953 206.232 -94.3117 206.127 -93.924 206.003C-89.1337 204.473 -82.1056 202.23 -73.1359 199.394C-55.1877 193.717 -29.4005 185.617 2.0652 175.928C64.948 156.565 150.842 130.73 242.557 104.914C334.043 79.163 432.506 53.1181 520.222 33.5572C604.133 14.8452 690.005 -0.759505 750.481 0.0286044ZM39.7925 373.486L39.8386 373.418L39.8616 373.326L39.7925 373.486ZM39.8616 373.326L40.0229 373.052C40.1094 372.884 40.2107 372.699 40.2995 372.526C40.4766 372.179 40.6431 371.803 40.8296 371.428C41.2036 370.676 41.612 369.846 42.028 368.958C42.0842 368.837 42.1318 368.694 42.1893 368.569C41.4494 370.16 40.68 371.753 39.8616 373.326Z" fill="#9F2322"/>
</svg>
