<svg width="67" height="11" viewBox="0 0 67 11" fill="none" xmlns="http://www.w3.org/2000/svg">
<path d="M5.31459 0.458471C5.382 0.291781 5.618 0.291782 5.68541 0.458471L6.88209 3.41751C6.91074 3.48835 6.97725 3.53668 7.05348 3.54203L10.2375 3.76574C10.4168 3.77835 10.4898 4.0028 10.3521 4.11842L7.90766 6.17092C7.84913 6.22006 7.82373 6.29825 7.84219 6.3724L8.61334 9.4697C8.65678 9.64418 8.46585 9.7829 8.31333 9.68766L5.60593 7.99714C5.54111 7.95667 5.45889 7.95667 5.39407 7.99714L2.68666 9.68766C2.53415 9.7829 2.34322 9.64418 2.38666 9.4697L3.15781 6.3724C3.17627 6.29825 3.15087 6.22006 3.09234 6.17092L0.647925 4.11842C0.510226 4.0028 0.583154 3.77835 0.762516 3.76574L3.94652 3.54203C4.02275 3.53668 4.08926 3.48835 4.11791 3.41751L5.31459 0.458471Z" fill="#FFF2E2"/>
<path d="M19.3146 0.458471C19.382 0.291781 19.618 0.291782 19.6854 0.458471L20.8821 3.41751C20.9107 3.48835 20.9773 3.53668 21.0535 3.54203L24.2375 3.76574C24.4168 3.77835 24.4898 4.0028 24.3521 4.11842L21.9077 6.17092C21.8491 6.22006 21.8237 6.29825 21.8422 6.3724L22.6133 9.4697C22.6568 9.64418 22.4658 9.7829 22.3133 9.68766L19.6059 7.99714C19.5411 7.95667 19.4589 7.95667 19.3941 7.99714L16.6867 9.68766C16.5342 9.7829 16.3432 9.64418 16.3867 9.4697L17.1578 6.3724C17.1763 6.29825 17.1509 6.22006 17.0923 6.17092L14.6479 4.11842C14.5102 4.0028 14.5832 3.77835 14.7625 3.76574L17.9465 3.54203C18.0227 3.53668 18.0893 3.48835 18.1179 3.41751L19.3146 0.458471Z" fill="#FFF2E2"/>
<path d="M33.3146 0.458471C33.382 0.291781 33.618 0.291782 33.6854 0.458471L34.8821 3.41751C34.9107 3.48835 34.9773 3.53668 35.0535 3.54203L38.2375 3.76574C38.4168 3.77835 38.4898 4.0028 38.3521 4.11842L35.9077 6.17092C35.8491 6.22006 35.8237 6.29825 35.8422 6.3724L36.6133 9.4697C36.6568 9.64418 36.4658 9.7829 36.3133 9.68766L33.6059 7.99714C33.5411 7.95667 33.4589 7.95667 33.3941 7.99714L30.6867 9.68766C30.5342 9.7829 30.3432 9.64418 30.3867 9.4697L31.1578 6.3724C31.1763 6.29825 31.1509 6.22006 31.0923 6.17092L28.6479 4.11842C28.5102 4.0028 28.5832 3.77835 28.7625 3.76574L31.9465 3.54203C32.0227 3.53668 32.0893 3.48835 32.1179 3.41751L33.3146 0.458471Z" fill="#FFF2E2"/>
<path d="M47.3146 0.458471C47.382 0.291781 47.618 0.291782 47.6854 0.458471L48.8821 3.41751C48.9107 3.48835 48.9773 3.53668 49.0535 3.54203L52.2375 3.76574C52.4168 3.77835 52.4898 4.0028 52.3521 4.11842L49.9077 6.17092C49.8491 6.22006 49.8237 6.29825 49.8422 6.3724L50.6133 9.4697C50.6568 9.64418 50.4658 9.7829 50.3133 9.68766L47.6059 7.99714C47.5411 7.95667 47.4589 7.95667 47.3941 7.99714L44.6867 9.68766C44.5342 9.7829 44.3432 9.64418 44.3867 9.4697L45.1578 6.3724C45.1763 6.29825 45.1509 6.22006 45.0923 6.17092L42.6479 4.11842C42.5102 4.0028 42.5832 3.77835 42.7625 3.76574L45.9465 3.54203C46.0227 3.53668 46.0893 3.48835 46.1179 3.41751L47.3146 0.458471Z" fill="#FFF2E2"/>
<path d="M61.3146 0.458471C61.382 0.291781 61.618 0.291782 61.6854 0.458471L62.8821 3.41751C62.9107 3.48835 62.9773 3.53668 63.0535 3.54203L66.2375 3.76574C66.4168 3.77835 66.4898 4.0028 66.3521 4.11842L63.9077 6.17092C63.8491 6.22006 63.8237 6.29825 63.8422 6.3724L64.6133 9.4697C64.6568 9.64418 64.4658 9.7829 64.3133 9.68766L61.6059 7.99714C61.5411 7.95667 61.4589 7.95667 61.3941 7.99714L58.6867 9.68766C58.5342 9.7829 58.3432 9.64418 58.3867 9.4697L59.1578 6.3724C59.1763 6.29825 59.1509 6.22006 59.0923 6.17092L56.6479 4.11842C56.5102 4.0028 56.5832 3.77835 56.7625 3.76574L59.9465 3.54203C60.0227 3.53668 60.0893 3.48835 60.1179 3.41751L61.3146 0.458471Z" fill="#FFF2E2"/>
</svg>
