<svg width="51" height="49" viewBox="0 0 51 49" fill="none" xmlns="http://www.w3.org/2000/svg">
<path d="M30.6438 41.7776C30.9817 41.714 31.3067 41.7112 31.5293 41.7158C31.8196 41.7219 32.128 41.7474 32.4251 41.7803C33.0214 41.8463 33.6872 41.9555 34.2886 42.0659C34.896 42.1773 35.4683 42.2956 35.8866 42.3855C36.0962 42.4306 36.2691 42.4689 36.3902 42.4961C36.4507 42.5097 36.499 42.5206 36.5321 42.5282C36.5485 42.5319 36.5615 42.5351 36.5705 42.5372C36.5749 42.5382 36.5787 42.5391 36.5812 42.5397L36.5844 42.5405L36.5861 42.5409C37.6944 42.7987 38.3748 43.8966 38.1059 44.9931C37.8369 46.0895 36.7207 46.7692 35.6124 46.5117L35.6107 46.5117C35.6107 46.5117 35.6067 46.5107 35.6035 46.5099C35.5968 46.5084 35.5859 46.506 35.5719 46.5028C35.5437 46.4963 35.5009 46.4866 35.446 46.4743C35.3358 46.4495 35.1758 46.4139 34.9805 46.372C34.5882 46.2876 34.0591 46.1781 33.5057 46.0766C32.9463 45.9739 32.3904 45.8846 31.936 45.8342C31.7536 45.8141 31.6052 45.8037 31.4913 45.7985C31.4232 45.8434 31.3373 45.9022 31.2353 45.9787C30.9172 46.2173 30.5395 46.539 30.1597 46.8817C29.7855 47.2194 29.4354 47.5536 29.1774 47.8054C29.0491 47.9306 28.9453 48.0342 28.8741 48.1054C28.8386 48.1409 28.8113 48.1683 28.7934 48.1864C28.7846 48.1953 28.7777 48.2019 28.7736 48.2061C28.7716 48.2081 28.7694 48.2105 28.7694 48.2105C27.9728 49.0223 26.6647 49.0477 25.8484 48.2668C25.0324 47.4859 25.0163 46.1949 25.8127 45.3831L27.197 46.7073C25.8685 45.4362 25.8148 45.3851 25.8127 45.3831L25.8139 45.3815L25.8163 45.3793C25.8181 45.3774 25.8208 45.375 25.8239 45.3719C25.8301 45.3655 25.8389 45.3564 25.8501 45.3451C25.8726 45.3224 25.9049 45.2898 25.9456 45.249C26.0271 45.1676 26.1434 45.0525 26.2852 44.9141C26.5678 44.6383 26.959 44.2643 27.3856 43.8792C27.8066 43.4993 28.2899 43.0833 28.7526 42.7363C28.9834 42.5632 29.2358 42.3871 29.4918 42.2362C29.7194 42.1021 30.0777 41.9102 30.4983 41.8087L30.6438 41.7776Z" fill="#651514"/>
<path d="M28.1783 33.149C28.834 32.9909 29.5902 32.9676 30.2868 32.987C31.0182 33.0074 31.8398 33.0808 32.6919 33.1851C34.3977 33.3939 36.344 33.7407 38.1588 34.1035C39.9798 34.4675 41.7001 34.8538 42.9628 35.1487C43.5947 35.2963 44.1141 35.4216 44.4762 35.51C44.6571 35.5542 44.7993 35.5896 44.8965 35.6137C44.9448 35.6257 44.9825 35.6351 45.008 35.6415C45.0206 35.6446 45.0305 35.6472 45.0372 35.6489C45.0404 35.6498 45.0452 35.6509 45.0452 35.6509L45.0474 35.6511L45.0484 35.6517C46.1514 35.9303 46.8105 37.0409 46.5206 38.1323C46.2397 39.1896 45.1712 39.841 44.1019 39.6276L43.9982 39.6043L43.9969 39.6038C43.9969 39.6038 43.9933 39.6032 43.9907 39.6026C43.9851 39.6012 43.9764 39.5987 43.9651 39.5958C43.942 39.5901 43.9069 39.5815 43.8612 39.5701C43.7692 39.5472 43.6326 39.5134 43.4575 39.4706C43.107 39.385 42.6014 39.2631 41.9847 39.1191C40.7497 38.8305 39.0754 38.4543 37.3115 38.1018C35.5414 37.748 33.711 37.4243 32.1549 37.2338C31.3763 37.1385 30.695 37.0802 30.1409 37.0648C29.5522 37.0484 29.2391 37.0852 29.1305 37.1114C29.0475 37.1314 28.7803 37.2301 28.2956 37.5131C27.841 37.7785 27.3 38.1436 26.6926 38.5911C25.4789 39.4856 24.1051 40.633 22.7961 41.7844C21.4925 42.9309 20.2792 44.0583 19.39 44.9005C18.9461 45.3211 18.5841 45.6692 18.3342 45.9115C18.2093 46.0325 18.1123 46.1269 18.0471 46.1907C18.0145 46.2226 17.9899 46.2471 17.9737 46.2631C17.9656 46.2711 17.9593 46.277 17.9554 46.2808C17.9536 46.2826 17.9514 46.2848 17.9514 46.2848L17.9505 46.2858C17.1408 47.0848 15.8332 47.0888 15.0299 46.295C14.2268 45.501 14.2318 44.2092 15.0415 43.4102L15.0438 43.4079C15.0438 43.4079 15.0474 43.4046 15.0498 43.4022C15.0546 43.3974 15.0617 43.3906 15.0707 43.3818C15.089 43.3637 15.1159 43.3371 15.1507 43.303C15.2203 43.235 15.322 43.136 15.4518 43.0102C15.7115 42.7584 16.0848 42.399 16.5418 41.9662C17.4546 41.1015 18.7076 39.9373 20.0614 38.7466C21.4098 37.5607 22.8853 36.3247 24.2378 35.328C24.9134 34.8301 25.5848 34.372 26.2129 34.0052C26.8107 33.6562 27.4972 33.3132 28.1783 33.149Z" fill="#651514"/>
<path d="M25.8562 24.489C26.6372 24.3002 27.5704 24.2622 28.484 24.2826C29.4314 24.3037 30.505 24.3926 31.6307 24.5227C33.8836 24.7831 36.4616 25.2224 38.8758 25.6864C41.2962 26.1516 43.5829 26.6477 45.2624 27.0266C46.1028 27.2162 46.7934 27.3768 47.2743 27.4904C47.5146 27.5471 47.7029 27.5924 47.8316 27.6233C47.8957 27.6387 47.9454 27.6506 47.979 27.6588C47.9957 27.6629 48.0091 27.666 48.0179 27.6682C48.022 27.6692 48.0254 27.6699 48.0277 27.6705L48.0309 27.6713C49.1361 27.9414 49.8052 29.047 49.5239 30.1406C49.2425 31.2341 48.1183 31.902 47.0131 31.6321L47.0108 31.6314C47.0108 31.6314 47.0059 31.6301 47.0023 31.6292C46.9946 31.6274 46.9828 31.6246 46.9674 31.6208C46.9362 31.6133 46.8891 31.6018 46.8275 31.587C46.704 31.5573 46.521 31.5138 46.2864 31.4584C45.8171 31.3476 45.1402 31.1901 44.315 31.004C42.6631 30.6313 40.4221 30.1453 38.0587 29.6911C35.6889 29.2356 33.2257 28.8175 31.1212 28.5743C30.0684 28.4526 29.1332 28.3781 28.3609 28.3609C27.555 28.343 27.0563 28.3918 26.8113 28.451C26.5903 28.5045 26.1536 28.6806 25.4787 29.0689C24.8336 29.4401 24.0788 29.9416 23.2454 30.5445C21.5795 31.7497 19.7022 33.2864 17.9225 34.8183C16.1481 36.3457 14.4966 37.8459 13.2871 38.9656C12.6831 39.5248 12.1906 39.9878 11.85 40.3103C11.6798 40.4715 11.5476 40.5978 11.4584 40.683C11.4139 40.7255 11.3799 40.7578 11.3575 40.7793C11.3463 40.79 11.3377 40.7985 11.3323 40.8038C11.3297 40.8062 11.3267 40.8094 11.3267 40.8094L11.3253 40.8106C10.5061 41.6 9.19835 41.5888 8.40477 40.7855C7.61132 39.9821 7.63188 38.6904 8.4511 37.9009L8.45217 37.9002L8.4541 37.898C8.4558 37.8964 8.45833 37.8941 8.46144 37.8911C8.46787 37.8849 8.47754 37.8759 8.48975 37.8642C8.51423 37.8407 8.55006 37.806 8.59679 37.7613C8.69035 37.6719 8.82728 37.5412 9.00248 37.3753C9.35284 37.0435 9.85692 36.5696 10.474 35.9983C11.7068 34.857 13.3974 33.3215 15.2214 31.7514C17.04 30.186 19.0178 28.5634 20.8202 27.2595C21.7209 26.6079 22.6036 26.017 23.4188 25.5479C24.2042 25.096 25.0513 24.6836 25.8562 24.489Z" fill="#651514"/>
<path d="M23.6341 16.2241C25.1911 15.842 27.6253 15.8737 30.1028 16.0343C32.6802 16.2015 35.6304 16.5358 38.399 16.9028C41.173 17.2706 43.7923 17.675 45.7161 17.9871C46.6784 18.1432 47.4686 18.2765 48.0188 18.3709C48.2937 18.4181 48.5092 18.4557 48.6562 18.4815C48.7296 18.4944 48.7864 18.5046 48.8247 18.5114C48.8438 18.5147 48.8586 18.5172 48.8686 18.519C48.8734 18.5198 48.8773 18.5204 48.8799 18.5209L48.8831 18.5217C50.0039 18.7222 50.7429 19.7836 50.5318 20.892C50.3207 22.0004 49.2408 22.7366 48.12 22.5362L48.1174 22.5357L48.0668 22.5265C48.0308 22.5202 47.9766 22.5108 47.9059 22.4984C47.7637 22.4734 47.553 22.4366 47.2834 22.3904C46.7439 22.2978 45.9661 22.1665 45.0178 22.0127C43.1195 21.7047 40.5423 21.307 37.8205 20.9461C35.0932 20.5846 32.247 20.2637 29.8029 20.1052C27.2589 19.9402 25.4453 19.9757 24.6032 20.1824C23.7954 20.3808 22.2454 21.1878 20.1527 22.5484C18.1492 23.851 15.8904 25.4964 13.7538 27.1262C11.6221 28.7522 9.63542 30.3444 8.18022 31.5314C7.45322 32.1244 6.86022 32.6153 6.4497 32.9572C6.24449 33.1281 6.08489 33.2619 5.97711 33.3524C5.92328 33.3977 5.88223 33.4323 5.855 33.4552C5.84153 33.4666 5.83127 33.475 5.82462 33.4807C5.82131 33.4835 5.81873 33.4859 5.81717 33.4872L5.81543 33.4885C4.94632 34.224 3.64263 34.129 2.90401 33.276C2.16551 32.4229 2.2715 31.1349 3.14056 30.3993L4.47785 31.9441C3.1931 30.4602 3.14248 30.4016 3.14056 30.3993L3.14153 30.3982L3.14395 30.3963C3.14595 30.3946 3.14881 30.3922 3.15246 30.3891C3.16007 30.3827 3.17132 30.373 3.18584 30.3608C3.21503 30.3362 3.25825 30.3 3.31415 30.2531C3.42612 30.159 3.59041 30.0212 3.80038 29.8463C4.22029 29.4966 4.82449 28.9966 5.5638 28.3936C7.04151 27.1883 9.06539 25.566 11.244 23.9042C13.4178 22.246 15.7698 20.5299 17.8988 19.1458C19.9382 17.8198 22.043 16.6148 23.6341 16.2241Z" fill="#651514"/>
<path fill-rule="evenodd" clip-rule="evenodd" d="M21.5186 8.35223C23.0247 7.97776 25.3945 7.91579 27.8503 7.96672C30.3904 8.0194 33.2953 8.20347 36.0227 8.42259C38.7547 8.64208 41.3326 8.89895 43.2258 9.10065C44.1729 9.20154 44.9504 9.28885 45.4916 9.35098C45.762 9.38203 45.9739 9.40657 46.1184 9.42365C46.1904 9.43216 46.2461 9.43871 46.2837 9.44321C46.3024 9.44545 46.3172 9.44734 46.327 9.44852C46.3317 9.44909 46.3357 9.44972 46.3382 9.45004L46.3412 9.45007C46.3412 9.45007 46.6063 7.44449 46.3425 9.45053C47.4734 9.58783 48.271 10.6055 48.124 11.7235C47.9769 12.8414 46.9407 13.6364 45.8098 13.4993L45.8072 13.4992C45.8051 13.4989 45.8016 13.4986 45.7973 13.4981C45.7886 13.4971 45.7751 13.4952 45.7575 13.4931C45.722 13.4889 45.6685 13.4826 45.5987 13.4743C45.4585 13.4577 45.2511 13.4334 44.9856 13.4029C44.4541 13.3419 43.6881 13.2558 42.7538 13.1562C40.8837 12.957 38.3435 12.7042 35.6583 12.4885C32.9684 12.2724 30.1558 12.0955 27.7339 12.0453C25.2282 11.9933 23.3909 12.0861 22.4999 12.3077C21.6376 12.5221 20.0362 13.3014 17.9221 14.5512C15.8847 15.7555 13.5845 17.2656 11.4089 18.7554C9.23763 20.2421 7.21148 21.6938 5.72697 22.7751C4.98529 23.3154 4.37992 23.7624 3.9607 24.0737C3.75115 24.2293 3.58802 24.3513 3.47785 24.4338C3.42288 24.4749 3.3811 24.5064 3.35327 24.5273C3.33937 24.5378 3.32863 24.5455 3.32188 24.5506C3.31862 24.553 3.31501 24.5561 3.31501 24.5561L3.32962 24.5436C3.32239 24.5491 3.31538 24.5556 3.30764 24.5614C3.30288 24.5651 3.07758 24.7453 2.74533 24.8621C2.64696 24.8966 1.98638 25.1394 1.22542 24.8103C0.17784 24.3571 0.00614014 23.3749 0.00032603 22.9853C-0.00503005 22.623 0.0911222 22.3509 0.116871 22.2784C0.137833 22.2193 0.158401 22.1701 0.174615 22.1335C0.183017 22.1146 0.191405 22.0971 0.198775 22.0817C0.202463 22.074 0.206074 22.0665 0.209533 22.0595C0.211256 22.056 0.213007 22.0524 0.214677 22.049L0.217157 22.0442L0.218099 22.0415C0.218099 22.0415 0.23149 22.0453 2.02554 22.9214L0.219534 22.0391C0.343441 21.7943 0.510752 21.5852 0.706863 21.4149C0.712663 21.4098 0.718224 21.4045 0.724075 21.3995C0.721351 21.4019 0.718706 21.4041 0.716238 21.4062C0.74792 21.379 0.780412 21.3529 0.813524 21.3278L0.832892 21.3127C0.840761 21.3068 0.852504 21.2982 0.867381 21.287C0.897203 21.2646 0.941245 21.2316 0.998259 21.1889C1.11243 21.1034 1.27976 20.9785 1.49371 20.8196C1.92179 20.5017 2.53742 20.0471 3.29069 19.4984C4.79637 18.4016 6.85723 16.9248 9.07204 15.4083C11.2825 13.8947 13.6683 12.3264 15.8194 11.0548C17.8936 9.82874 19.9838 8.7339 21.5186 8.35223ZM3.91216 23.8395L3.9137 23.8374L3.91657 23.8325C3.91824 23.8292 3.91998 23.8256 3.92171 23.8221C3.92517 23.815 3.92877 23.8076 3.93247 23.7998C3.93983 23.7844 3.94784 23.7671 3.95624 23.7481C3.95714 23.7461 3.95777 23.7438 3.95869 23.7417C3.94423 23.7745 3.92851 23.8071 3.91216 23.8395ZM4.00734 23.6191C4.00926 23.6138 4.01205 23.6087 4.01398 23.6033C4.01641 23.5964 4.01889 23.5875 4.02244 23.5771C4.01765 23.5911 4.01245 23.6051 4.00734 23.6191ZM4.13025 22.9047C4.13022 22.9019 4.13056 22.8991 4.13052 22.8963C4.13047 22.8935 4.12988 22.8904 4.12982 22.8875C4.12993 22.8931 4.13018 22.899 4.13025 22.9047ZM2.93743 21.0862C2.92681 21.0814 2.91617 21.076 2.90543 21.0713L2.9007 21.0693C2.91299 21.0746 2.92521 21.0807 2.93743 21.0862ZM0.743523 21.3832L0.741389 21.3846C0.764967 21.365 0.789177 21.3463 0.813524 21.3278L0.743523 21.3832ZM1.38553 21.0196C1.37863 21.022 1.37185 21.0251 1.36508 21.0275C1.3785 21.0227 1.39199 21.0176 1.4055 21.013C1.39871 21.0153 1.39179 21.0174 1.38553 21.0196Z" fill="#651514"/>
<path d="M0.706863 21.4149L0.695251 21.4246C0.700504 21.4199 0.707543 21.4137 0.716238 21.4062C0.713004 21.409 0.710081 21.4121 0.706863 21.4149Z" fill="#651514"/>
<path fill-rule="evenodd" clip-rule="evenodd" d="M19.3983 0.481196C20.3852 0.230432 21.7209 0.114742 23.0744 0.0561432C24.47 -0.0042745 26.0441 -0.0088494 27.5833 0.00948191C30.7701 0.0474407 33.6093 0.17504 35.0221 0.159646C36.1626 0.147249 37.0907 1.05013 37.0952 2.17643C37.0996 3.30275 36.1787 4.22597 35.0382 4.23852C33.6143 4.25404 30.4112 4.12308 27.5038 4.08845C25.9959 4.07049 24.5092 4.07624 23.2255 4.13181C21.8998 4.18921 20.9367 4.29519 20.4003 4.43146C19.9039 4.55767 18.918 4.98712 17.5575 5.69504C16.2573 6.37159 14.7815 7.21269 13.3799 8.04227C11.9819 8.86971 10.6752 9.67486 9.71686 10.2739C9.23816 10.5731 8.84749 10.8206 8.57687 10.9926C8.44173 11.0785 8.33634 11.1455 8.26514 11.1911C8.22959 11.2138 8.20224 11.2316 8.18385 11.2434C8.17499 11.249 8.16712 11.2538 8.16201 11.257C8.15964 11.2586 8.15663 11.2608 8.15387 11.2625C8.15387 11.2625 8.14935 11.2653 8.14562 11.2676C8.14314 11.2692 8.13616 11.2735 8.13165 11.2763C8.11559 11.2858 7.77254 11.4543 7.41923 11.555C6.88595 11.6572 6.1158 11.5694 5.53173 10.9581C5.08036 10.4856 5.00478 9.95824 4.98606 9.79367C4.96161 9.5785 4.97774 9.40731 4.98697 9.32907C4.99262 9.2812 4.99947 9.23953 5.00548 9.20627C5.00853 9.18933 5.01157 9.17335 5.01453 9.15893L5.02097 9.12837L5.02217 9.12351L5.02291 9.12002C5.02557 9.12051 5.09806 9.13471 6.9914 9.54023L5.02338 9.11865C5.15605 8.53307 5.53029 8.06062 6.01937 7.78298C6.02492 7.77943 6.03093 7.77593 6.03694 7.77209C6.11111 7.72464 6.21994 7.65509 6.35894 7.56673C6.6371 7.38994 7.03699 7.13686 7.52581 6.83133C8.50271 6.22073 9.83984 5.39702 11.2756 4.54723C12.7077 3.69957 14.2566 2.81533 15.6528 2.08882C16.9885 1.39382 18.3714 0.742164 19.3983 0.481196ZM9.05401 9.98095L9.05448 9.97959L9.05446 9.97795L9.05401 9.98095ZM9.05446 9.97795L9.05595 9.97261C9.05666 9.9694 9.05755 9.96583 9.05827 9.96251C9.0597 9.95587 9.06083 9.9488 9.06229 9.94165C9.06523 9.92732 9.0684 9.91152 9.07144 9.8947C9.07185 9.89242 9.07201 9.88979 9.07242 9.88743C9.06707 9.91754 9.06123 9.9478 9.05446 9.97795Z" fill="#651514"/>
</svg>
