<svg width="37" height="36" viewBox="0 0 37 36" fill="none" xmlns="http://www.w3.org/2000/svg">
<path d="M18.4008 31.178C18.6552 31.1969 18.8887 31.2562 19.0474 31.3015C19.2543 31.3605 19.4704 31.4365 19.6771 31.5157C20.0919 31.6746 20.5481 31.877 20.958 32.068C21.3719 32.2609 21.7594 32.4521 22.042 32.5942C22.1835 32.6654 22.3001 32.725 22.3817 32.767C22.4225 32.788 22.455 32.8047 22.4773 32.8163C22.4883 32.822 22.497 32.8267 22.503 32.8299C22.506 32.8314 22.5102 32.8337 22.5102 32.8337L22.5123 32.8348L22.5135 32.8354C23.2584 33.2258 23.5353 34.1266 23.1319 34.8474C22.7285 35.5682 21.7979 35.836 21.0529 35.4458L21.0517 35.4455C21.0517 35.4455 21.0491 35.444 21.0469 35.4429C21.0424 35.4405 21.0351 35.4368 21.0257 35.4319C21.0067 35.422 20.9779 35.4071 20.9409 35.3881C20.8667 35.3499 20.7588 35.2947 20.6269 35.2284C20.3619 35.0951 20.0037 34.9183 19.6265 34.7425C19.2452 34.5648 18.864 34.3971 18.5479 34.276C18.4211 34.2274 18.3167 34.1921 18.236 34.167C18.1786 34.1858 18.1057 34.211 18.0179 34.2456C17.7441 34.3534 17.4116 34.5086 17.0735 34.6781C16.7404 34.8452 16.4253 35.0144 16.1921 35.1428C16.0761 35.2068 15.9818 35.2601 15.917 35.2968C15.8848 35.3151 15.8599 35.3292 15.8436 35.3385C15.8356 35.3432 15.8294 35.3465 15.8257 35.3487C15.8239 35.3497 15.8218 35.351 15.8218 35.351C15.0949 35.772 14.1524 35.5432 13.7173 34.8399C13.2823 34.1365 13.5188 33.2252 14.2455 32.8041L14.9835 33.9968C14.2753 32.852 14.2466 32.8059 14.2455 32.8041L14.2467 32.8032L14.2488 32.8021C14.2488 32.8021 14.2529 32.7999 14.2557 32.7983C14.2614 32.795 14.2695 32.7902 14.2797 32.7844C14.3001 32.7727 14.3295 32.7558 14.3666 32.7348C14.4406 32.6929 14.546 32.6338 14.6743 32.5632C14.9298 32.4224 15.282 32.233 15.6618 32.0425C16.0365 31.8545 16.4628 31.6529 16.8611 31.496C17.0598 31.4177 17.2745 31.3414 17.487 31.2835C17.6759 31.232 17.9696 31.1646 18.2906 31.1724L18.4008 31.178Z" fill="#272727"/>
<path d="M18.2908 24.6418C18.7911 24.6542 19.3377 24.7803 19.8332 24.9253C20.3536 25.0776 20.9284 25.2842 21.5191 25.5182C22.7017 25.9867 24.0301 26.5977 25.2612 27.1951C26.4966 27.7945 27.6555 28.3907 28.5039 28.8363C28.9285 29.0593 29.2767 29.2454 29.5193 29.3758C29.6405 29.441 29.7356 29.4927 29.8006 29.528C29.833 29.5456 29.8582 29.5593 29.8752 29.5686C29.8836 29.5732 29.8902 29.5769 29.8947 29.5794C29.8969 29.5805 29.9001 29.5823 29.9001 29.5823L29.9016 29.5828C30.6387 29.9868 30.8984 30.8931 30.481 31.6065C30.0766 32.2974 29.1856 32.5543 28.4602 32.2025L28.3904 32.1666L28.3895 32.166L28.3853 32.164C28.3815 32.1619 28.3758 32.1585 28.3682 32.1544C28.3528 32.146 28.3293 32.1333 28.2987 32.1167C28.2371 32.0833 28.1457 32.0337 28.0284 31.9706C27.7937 31.8443 27.4546 31.6632 27.0403 31.4455C26.2105 31.0097 25.0826 30.4293 23.886 29.8487C22.6852 29.266 21.4354 28.6931 20.3567 28.2657C19.8169 28.0519 19.3397 27.8824 18.9455 27.7671C18.5267 27.6446 18.2952 27.6114 18.2124 27.6094C18.149 27.6078 17.9385 27.6269 17.5367 27.7346C17.1599 27.8357 16.702 27.9905 16.1807 28.1909C15.1389 28.5915 13.9339 29.1398 12.7745 29.7032C11.6199 30.2641 10.5337 30.8286 9.73462 31.2536C9.33562 31.4658 9.00932 31.6426 8.78367 31.7659C8.6709 31.8275 8.58319 31.8757 8.52421 31.9083C8.49472 31.9245 8.47243 31.9372 8.45769 31.9454C8.45036 31.9494 8.44472 31.9524 8.44121 31.9543L8.43762 31.9564L8.43672 31.957C7.7029 32.3665 6.76486 32.1228 6.34156 31.4128C5.91839 30.7026 6.17007 29.7947 6.90392 29.3851L6.90602 29.384C6.90602 29.384 6.90921 29.3823 6.91141 29.3811C6.9158 29.3786 6.92215 29.3751 6.93029 29.3706C6.9469 29.3614 6.97132 29.3477 7.00279 29.3303C7.06573 29.2955 7.15763 29.2451 7.27484 29.181C7.50936 29.0528 7.84597 28.8703 8.25665 28.6519C9.07699 28.2156 10.1987 27.6327 11.3978 27.0501C12.592 26.4699 13.887 25.8784 15.0479 25.4321C15.6278 25.2092 16.197 25.0133 16.7176 24.8737C17.2131 24.7409 17.7711 24.6289 18.2908 24.6418Z" fill="#272727"/>
<path d="M18.2896 18.1106C18.8857 18.125 19.5619 18.2742 20.2128 18.4608C20.8878 18.6543 21.6403 18.9192 22.4222 19.223C23.987 19.8309 25.7504 20.6261 27.3918 21.4078C29.0373 22.1914 30.5811 22.9716 31.7121 23.5549C32.2781 23.8467 32.7422 24.09 33.0652 24.2606C33.2265 24.3458 33.3528 24.4131 33.4391 24.4591C33.4821 24.4821 33.5154 24.4998 33.5379 24.5119C33.5491 24.5179 33.5581 24.5227 33.564 24.5258C33.5667 24.5273 33.5706 24.5293 33.5706 24.5293L33.5727 24.5305C34.313 24.9289 34.5802 25.833 34.1686 26.5494C33.7569 27.2658 32.8228 27.5238 32.0824 27.1255L32.0809 27.1246C32.0809 27.1246 32.0777 27.1228 32.0752 27.1214C32.0701 27.1187 32.0622 27.1145 32.0519 27.109C32.031 27.0978 31.9994 27.0809 31.9581 27.0588C31.8753 27.0146 31.7524 26.9495 31.595 26.8663C31.2798 26.6999 30.8249 26.4614 30.2692 26.1749C29.1567 25.6012 27.6437 24.8367 26.0369 24.0715C24.4258 23.3043 22.7406 22.5457 21.2788 21.9778C20.5476 21.6936 19.8916 21.4649 19.3413 21.3072C18.7671 21.1426 18.4002 21.083 18.2133 21.0784C18.0446 21.0744 17.6978 21.116 17.1395 21.262C16.6057 21.4015 15.9684 21.6121 15.2552 21.8792C13.8298 22.4131 12.1889 23.1404 10.6191 23.8828C9.0539 24.6229 7.582 25.3672 6.50005 25.927C5.9597 26.2066 5.51778 26.4395 5.21173 26.6022C5.05875 26.6835 4.93971 26.7475 4.85939 26.7907C4.81935 26.8122 4.78882 26.8284 4.76861 26.8394C4.75851 26.8448 4.75075 26.8492 4.74584 26.8518C4.74353 26.8531 4.74075 26.8547 4.74075 26.8547L4.73955 26.8553C4.00073 27.2563 3.06552 27.0019 2.65098 26.2871C2.23656 25.5721 2.49938 24.6671 3.23821 24.2661L3.24091 24.2646C3.24091 24.2646 3.24469 24.2627 3.2475 24.2611C3.25329 24.258 3.26196 24.2535 3.27296 24.2475C3.29502 24.2356 3.32737 24.2179 3.36944 24.1953C3.45368 24.15 3.57693 24.0839 3.73436 24.0002C4.04921 23.8328 4.50155 23.5944 5.05354 23.3088C6.15642 22.7381 7.66311 21.9764 9.27203 21.2156C10.8762 20.457 12.6055 19.6882 14.1479 19.1105C14.9186 18.8218 15.6648 18.5725 16.3392 18.3961C16.9889 18.2262 17.6753 18.0958 18.2896 18.1106Z" fill="#272727"/>
<path d="M18.2843 11.8762C19.4737 11.9008 21.2123 12.3821 22.9573 12.9622C24.7726 13.5658 26.823 14.3572 28.737 15.1375C30.6547 15.9192 32.4544 16.6976 33.7734 17.28C34.4332 17.5712 34.974 17.814 35.3503 17.9842C35.5383 18.0692 35.6855 18.1363 35.7859 18.1822C35.836 18.2051 35.8748 18.2229 35.901 18.2349C35.9139 18.2409 35.9241 18.2454 35.9309 18.2486C35.9342 18.2501 35.9387 18.252 35.9387 18.252L35.9408 18.2532C36.7057 18.6056 37.0315 19.4917 36.6674 20.2319C36.3032 20.972 35.3877 21.2864 34.6228 20.9341L34.621 20.9332L34.5866 20.9172C34.562 20.906 34.5249 20.8892 34.4766 20.8671C34.3795 20.8227 34.2355 20.7571 34.0512 20.6737C33.6822 20.5069 33.15 20.2679 32.4998 19.9808C31.1983 19.4062 29.4274 18.6405 27.5458 17.8734C25.6603 17.1048 23.6819 16.3424 21.9605 15.7701C20.1687 15.1744 18.8619 14.8574 18.2186 14.8441C17.6015 14.8313 16.3355 15.1069 14.5742 15.6698C12.888 16.2086 10.9529 16.9405 9.10844 17.6844C7.26819 18.4266 5.53839 19.1724 4.26736 19.7332C3.63238 20.0134 3.11306 20.247 2.75314 20.4102C2.57323 20.4917 2.43312 20.5558 2.33848 20.5992C2.29121 20.6209 2.25514 20.6375 2.23122 20.6485C2.21938 20.6539 2.2104 20.658 2.20456 20.6607C2.20165 20.662 2.19797 20.6639 2.19797 20.6639L2.19647 20.6644C1.43224 21.0181 0.516036 20.7055 0.150441 19.966C-0.215047 19.2265 0.108296 18.3402 0.872498 17.9865L1.53433 19.3256C0.898452 18.0393 0.873434 17.9884 0.872498 17.9865L0.873397 17.9859L0.875494 17.985C0.875494 17.985 0.879775 17.983 0.882985 17.9815C0.88967 17.9785 0.899584 17.9738 0.912346 17.9679C0.937995 17.9561 0.975917 17.9388 1.025 17.9163C1.12332 17.8712 1.26756 17.8052 1.45164 17.7218C1.81979 17.5549 2.34889 17.317 2.99463 17.0321C4.28531 16.4626 6.04755 15.7026 7.92828 14.9441C9.80487 14.1872 11.8204 13.4232 13.6122 12.8506C15.3287 12.3021 17.0687 11.8511 18.2843 11.8762Z" fill="#272727"/>
<path fill-rule="evenodd" clip-rule="evenodd" d="M18.2798 5.93843C19.4312 5.9589 21.1417 6.36209 22.8922 6.86094C24.7028 7.3769 26.7496 8.0541 28.6624 8.72249C30.5785 9.39202 32.3769 10.0588 33.6952 10.5577C34.3547 10.8072 34.8952 11.0152 35.2712 11.161C35.459 11.2338 35.6062 11.291 35.7065 11.3303C35.7565 11.3499 35.7952 11.365 35.8213 11.3752C35.8342 11.3803 35.8444 11.3844 35.8512 11.3871C35.8545 11.3884 35.859 11.3903 35.859 11.3903L35.8611 11.3909C35.8611 11.3909 36.4363 10.0297 35.862 11.3915C36.6462 11.7013 37.0225 12.5677 36.7024 13.3267C36.3822 14.0855 35.4868 14.4496 34.7025 14.1399L34.7007 14.1393C34.7007 14.1393 34.6968 14.1378 34.6938 14.1367C34.6877 14.1343 34.6785 14.1305 34.6663 14.1257C34.6416 14.116 34.6045 14.1014 34.556 14.0825C34.4588 14.0444 34.3148 13.9882 34.1303 13.9166C33.7611 13.7735 33.2286 13.5685 32.578 13.3223C31.2758 12.8295 29.5036 12.1727 27.6204 11.5147C25.7338 10.8555 23.7518 10.2007 22.0255 9.70879C20.2394 9.19979 18.9046 8.91871 18.2234 8.90659C17.5642 8.89491 16.2667 9.14135 14.5113 9.6221C12.8197 10.0854 10.8809 10.7143 9.03534 11.3523C7.19351 11.9891 5.46241 12.6285 4.19066 13.1095C3.55528 13.3498 3.03552 13.5502 2.67524 13.6902C2.49515 13.7602 2.35479 13.8153 2.25999 13.8526C2.21268 13.8711 2.17668 13.8854 2.15273 13.8949C2.14076 13.8996 2.13158 13.903 2.12576 13.9053C2.12295 13.9064 2.11977 13.9079 2.11977 13.9079L2.13265 13.9018C2.1264 13.9044 2.12014 13.9076 2.11348 13.9103C2.10936 13.9119 1.91326 13.9963 1.65268 14.0158C1.57553 14.0216 1.05542 14.0678 0.573189 13.6928C-0.0906489 13.1764 -0.0250881 12.453 0.0455782 12.1777C0.111321 11.9218 0.232503 11.7484 0.264892 11.7023C0.291259 11.6647 0.315459 11.6339 0.334101 11.6112C0.34376 11.5995 0.353118 11.5888 0.361366 11.5793C0.365493 11.5746 0.369522 11.57 0.37335 11.5657C0.375257 11.5636 0.377204 11.5614 0.379043 11.5593L0.381739 11.5564L0.382938 11.5547C0.382938 11.5547 0.391817 11.5598 1.50947 12.5146L0.384436 11.5532C0.520255 11.4044 0.680351 11.2888 0.853623 11.2059C0.858748 11.2035 0.863755 11.2008 0.868903 11.1984C0.866506 11.1995 0.864189 11.2005 0.862012 11.2016C0.889939 11.1884 0.918241 11.1762 0.946801 11.1647L0.963579 11.1578C0.970357 11.1551 0.980431 11.1513 0.993241 11.1462C1.01892 11.136 1.05683 11.1211 1.10589 11.1018C1.20415 11.0632 1.34808 11.0069 1.53194 10.9354C1.89983 10.7925 2.42841 10.5886 3.07372 10.3446C4.3636 9.85672 6.1244 9.20617 8.00319 8.55666C9.87832 7.90842 11.8896 7.25473 13.6757 6.76556C15.3979 6.29389 17.1064 5.91762 18.2798 5.93843ZM2.68543 13.5163L2.68693 13.5151L2.68992 13.5122C2.69177 13.5101 2.6937 13.508 2.69562 13.5058C2.69945 13.5015 2.70347 13.4969 2.7076 13.4922C2.71584 13.4827 2.72491 13.472 2.73457 13.4603L2.73756 13.4562C2.72089 13.4766 2.70338 13.4965 2.68543 13.5163ZM2.79599 13.3791C2.79837 13.3758 2.80135 13.3727 2.80378 13.3693C2.80684 13.3649 2.81033 13.3591 2.81486 13.3525C2.80874 13.3614 2.80233 13.3703 2.79599 13.3791ZM3.02129 12.8996L3.02309 12.8938C3.0236 12.8918 3.02378 12.8895 3.02429 12.8874C3.02328 12.8914 3.02234 12.8956 3.02129 12.8996ZM2.51555 11.3952C2.50886 11.3898 2.50229 11.384 2.49548 11.3787L2.49248 11.3764C2.50027 11.3824 2.50786 11.389 2.51555 11.3952ZM0.885981 11.1905L0.884183 11.1911C0.904845 11.1818 0.925802 11.1732 0.946801 11.1647L0.885981 11.1905ZM1.41599 11.0557C1.41058 11.0561 1.40513 11.057 1.39981 11.0575C1.41036 11.0566 1.421 11.0556 1.43157 11.0549C1.42626 11.0552 1.4209 11.0554 1.41599 11.0557Z" fill="#272727"/>
<path d="M0.853623 11.2059L0.843436 11.2106C0.848093 11.2083 0.854343 11.2052 0.862012 11.2016C0.859161 11.2029 0.856466 11.2046 0.853623 11.2059Z" fill="#272727"/>
<path fill-rule="evenodd" clip-rule="evenodd" d="M18.2717 0.000362596C19.0272 0.00998644 20.0068 0.180412 20.9882 0.394359C22.0002 0.614975 23.1294 0.908541 24.2291 1.21163C26.506 1.83916 28.5165 2.46424 29.5322 2.71978C30.352 2.92608 30.8439 3.73637 30.6308 4.52972C30.4176 5.32306 29.5803 5.79904 28.7604 5.59285C27.7367 5.3353 25.466 4.63926 23.3887 4.06673C22.3113 3.76979 21.2446 3.49354 20.3138 3.29062C19.3526 3.08107 18.6418 2.97405 18.2312 2.96882C17.8512 2.96402 17.062 3.08033 15.9509 3.32193C14.889 3.55284 13.6697 3.86642 12.5057 4.18588C11.3447 4.50453 10.2535 4.82469 9.45149 5.06549C9.05091 5.18577 8.72335 5.28627 8.49634 5.35628C8.38298 5.39123 8.29456 5.41854 8.23478 5.43716C8.20493 5.44646 8.18192 5.45379 8.16647 5.45862C8.15904 5.46094 8.15249 5.46279 8.1482 5.46412C8.1462 5.46475 8.14362 5.46572 8.1413 5.46644C8.1413 5.46644 8.13754 5.46751 8.13441 5.46847C8.13233 5.46911 8.12651 5.47082 8.12273 5.47195C8.1094 5.4756 7.83115 5.52948 7.55857 5.5337C7.1567 5.50507 6.62153 5.29812 6.32028 4.75789C6.08751 4.3403 6.13461 3.95499 6.1528 3.83566C6.1766 3.67966 6.22104 3.56224 6.24268 3.50893C6.25593 3.47631 6.26885 3.44828 6.27954 3.42601C6.28498 3.41467 6.29023 3.404 6.29512 3.39441L6.3056 3.37412L6.3074 3.37093L6.3086 3.36861C6.3086 3.36861 6.35964 3.39311 7.63886 4.03542L6.3092 3.36774C6.51676 2.98071 6.87575 2.71885 7.27963 2.6157C7.28428 2.61425 7.28927 2.61292 7.29431 2.61135C7.35659 2.59195 7.44795 2.56352 7.56456 2.52756C7.79789 2.45561 8.13312 2.35293 8.54218 2.23011C9.35966 1.98466 10.4763 1.65716 11.6686 1.32992C12.8579 1.00349 14.138 0.673339 15.2783 0.42538C16.3691 0.188182 17.4855 -0.00962767 18.2717 0.000362596ZM9.03264 4.7344L9.03324 4.73353L9.03354 4.73238L9.03264 4.7344ZM9.03354 4.73238L9.03564 4.7289C9.03676 4.72678 9.03808 4.72443 9.03923 4.72223C9.04153 4.71783 9.0437 4.71307 9.04612 4.70831C9.05099 4.69878 9.05629 4.68826 9.0617 4.677L9.0638 4.67207C9.05418 4.69225 9.04418 4.71244 9.03354 4.73238Z" fill="#272727"/>
</svg>
