<svg width="121" height="38" viewBox="0 0 121 38" fill="none" xmlns="http://www.w3.org/2000/svg">
<path d="M18.4008 33.5529C18.6552 33.5719 18.8887 33.6312 19.0474 33.6764C19.2543 33.7354 19.4704 33.8115 19.6771 33.8906C20.0919 34.0495 20.5481 34.2519 20.958 34.4429C21.3719 34.6358 21.7594 34.827 22.0419 34.9691C22.1835 35.0403 22.3001 35.0999 22.3817 35.1419C22.4225 35.1629 22.455 35.1796 22.4773 35.1912C22.4883 35.1969 22.497 35.2017 22.503 35.2048C22.506 35.2064 22.5085 35.2077 22.5102 35.2086L22.5123 35.2097L22.5135 35.2103C23.2584 35.6007 23.5352 36.5015 23.1319 37.2223C22.7285 37.9431 21.7979 38.2109 21.0529 37.8207L21.0517 37.8204C21.0517 37.8204 21.0491 37.819 21.0469 37.8178C21.0424 37.8155 21.0351 37.8117 21.0257 37.8068C21.0067 37.7969 20.9779 37.7821 20.9409 37.763C20.8667 37.7248 20.7588 37.6696 20.6269 37.6033C20.3619 37.47 20.0037 37.2932 19.6265 37.1174C19.2452 36.9397 18.864 36.772 18.5479 36.6509C18.4211 36.6023 18.3167 36.5671 18.236 36.5419C18.1786 36.5607 18.1057 36.5859 18.0179 36.6205C17.7441 36.7283 17.4116 36.8835 17.0735 37.053C16.7404 37.2201 16.4253 37.3893 16.1921 37.5178C16.0761 37.5817 15.9818 37.635 15.917 37.6717C15.8848 37.69 15.8599 37.7041 15.8436 37.7135C15.8356 37.7181 15.8294 37.7215 15.8257 37.7236C15.8239 37.7247 15.8218 37.7259 15.8218 37.7259C15.0949 38.1469 14.1524 37.9182 13.7173 37.2148C13.2823 36.5115 13.5188 35.6001 14.2455 35.179L14.9835 36.3717C14.2753 35.2269 14.2466 35.1808 14.2455 35.179L14.2467 35.1781L14.2488 35.177C14.2505 35.176 14.2529 35.1748 14.2557 35.1732C14.2614 35.1699 14.2695 35.1652 14.2797 35.1593C14.3001 35.1476 14.3295 35.1307 14.3666 35.1097C14.4406 35.0678 14.546 35.0087 14.6743 34.9381C14.9298 34.7973 15.282 34.6079 15.6618 34.4174C16.0365 34.2294 16.4628 34.0278 16.8611 33.8709C17.0598 33.7926 17.2745 33.7163 17.487 33.6584C17.6759 33.6069 17.9696 33.5395 18.2905 33.5474L18.4008 33.5529Z" fill="#272727"/>
<path fill-rule="evenodd" clip-rule="evenodd" d="M83.1172 10.1732C85.3464 10.1732 87.2573 10.7016 88.8496 11.7581C89.8536 12.4029 90.7027 13.2374 91.3972 14.2616V10.6846H98.8808V35.7855H91.3972V32.1845C90.7026 33.2031 89.8537 34.0457 88.8496 34.712C87.2573 35.7685 85.3464 36.2966 83.1172 36.2966C80.9234 36.2966 78.8889 35.7173 77.0135 34.5586C75.1736 33.3658 73.7053 31.764 72.6084 29.7532C71.5469 27.7424 71.016 25.5611 71.016 23.2095C71.016 20.8579 71.5469 18.6766 72.6084 16.6658C73.7053 14.6551 75.1736 13.0703 77.0135 11.9115C78.8889 10.7527 80.9234 10.1732 83.1172 10.1732ZM84.8687 17.0236C83.6657 17.0236 82.5688 17.3134 81.5781 17.8928C80.5873 18.4381 79.7911 19.1879 79.1896 20.1422C78.6235 21.0624 78.3405 22.0849 78.3405 23.2095C78.3405 24.3342 78.6235 25.3736 79.1896 26.3279C79.7911 27.2822 80.5873 28.032 81.5781 28.5773C82.5688 29.1226 83.6657 29.3952 84.8687 29.3952C86.0717 29.3952 87.1688 29.1226 88.1596 28.5773C89.1503 28.0321 89.9286 27.2993 90.4947 26.3792C91.0963 25.4249 91.3972 24.3683 91.3972 23.2095C91.3972 22.0508 91.0963 21.0111 90.4947 20.0909C89.9286 19.1367 89.1502 18.387 88.1596 17.8417C87.1688 17.2964 86.0717 17.0236 84.8687 17.0236Z" fill="#272727"/>
<path d="M54.5774 21.3358L63.6004 10.6846H72.7825L61.9549 23.1414L73.6316 35.7855H64.0249L54.5774 24.8154V35.7855H47.0937V10.6776H54.5774V21.3358Z" fill="#272727"/>
<path d="M109.523 35.7855H102.04V0H109.523V35.7855Z" fill="#272727"/>
<path d="M120.151 35.7855H112.667V10.6846H120.151V35.7855Z" fill="#272727"/>
<path d="M18.2908 27.0167C18.7911 27.0291 19.3377 27.1553 19.8332 27.3003C20.3536 27.4525 20.9284 27.6591 21.5191 27.8931C22.7017 28.3616 24.0301 28.9726 25.2612 29.57C26.4966 30.1695 27.6555 30.7656 28.5039 31.2112C28.9285 31.4342 29.2767 31.6203 29.5193 31.7508C29.6405 31.816 29.7356 31.8677 29.8006 31.903C29.833 31.9205 29.8582 31.9342 29.8752 31.9436C29.8836 31.9481 29.8902 31.9518 29.8947 31.9543C29.8969 31.9555 29.9001 31.9572 29.9001 31.9572L29.9016 31.9578L29.9022 31.9583C30.6393 32.3623 30.8984 33.2681 30.481 33.9814C30.0766 34.6723 29.1856 34.9292 28.4602 34.5774L28.3904 34.5415L28.3895 34.5409C28.3895 34.5409 28.387 34.5398 28.3853 34.5389C28.3815 34.5368 28.3758 34.5335 28.3682 34.5293C28.3528 34.5209 28.3293 34.5083 28.2987 34.4916C28.2371 34.4582 28.1457 34.4086 28.0284 34.3455C27.7937 34.2192 27.4546 34.0381 27.0403 33.8205C26.2105 33.3846 25.0826 32.8042 23.886 32.2236C22.6852 31.6409 21.4354 31.068 20.3566 30.6407C19.8169 30.4268 19.3397 30.2574 18.9455 30.142C18.5267 30.0195 18.2952 29.9864 18.2124 29.9843C18.149 29.9828 17.9385 30.0018 17.5367 30.1095C17.1599 30.2106 16.702 30.3654 16.1807 30.5659C15.1389 30.9664 13.9339 31.5147 12.7745 32.0781C11.6199 32.639 10.5337 33.2036 9.73462 33.6285C9.33562 33.8407 9.00932 34.0175 8.78366 34.1408C8.6709 34.2025 8.58319 34.2506 8.5242 34.2832C8.49472 34.2995 8.47243 34.3121 8.45769 34.3203C8.45036 34.3244 8.44472 34.3273 8.44121 34.3293C8.4396 34.3302 8.43762 34.3313 8.43762 34.3313L8.43672 34.3319C7.7029 34.7414 6.76486 34.4977 6.34155 33.7877C5.91838 33.0776 6.17007 32.1696 6.90392 31.76L6.90602 31.7589C6.90602 31.7589 6.90921 31.7572 6.91141 31.756C6.9158 31.7535 6.92215 31.7501 6.93029 31.7455C6.9469 31.7363 6.97132 31.7226 7.00279 31.7052C7.06573 31.6705 7.15763 31.62 7.27484 31.5559C7.50936 31.4278 7.84597 31.2453 8.25665 31.0268C9.07699 30.5906 10.1987 30.0076 11.3978 29.425C12.592 28.8448 13.887 28.2534 15.0479 27.807C15.6278 27.5841 16.197 27.3883 16.7176 27.2486C17.2131 27.1158 17.7711 27.0039 18.2908 27.0167Z" fill="#272727"/>
<path d="M18.2896 20.4855C18.8857 20.4999 19.5619 20.6491 20.2128 20.8357C20.8878 21.0292 21.6402 21.2941 22.4222 21.5979C23.987 22.2059 25.7504 23.0011 27.3918 23.7827C29.0373 24.5663 30.5811 25.3466 31.7121 25.9298C32.2781 26.2217 32.7422 26.4649 33.0652 26.6355C33.2265 26.7207 33.3528 26.788 33.4391 26.8341C33.4821 26.857 33.5154 26.8747 33.5379 26.8868C33.5491 26.8928 33.5581 26.8976 33.564 26.9007C33.5667 26.9022 33.5691 26.9034 33.5706 26.9042L33.5727 26.9054C34.313 27.3038 34.5802 28.2079 34.1686 28.9244C33.7569 29.6408 32.8228 29.8987 32.0824 29.5004L32.0809 29.4996C32.0809 29.4996 32.0777 29.4977 32.0752 29.4964C32.0701 29.4936 32.0622 29.4894 32.0519 29.4839C32.031 29.4727 31.9994 29.4558 31.9581 29.4337C31.8753 29.3896 31.7524 29.3244 31.595 29.2412C31.2798 29.0748 30.8249 28.8364 30.2692 28.5498C29.1567 27.9761 27.6437 27.2117 26.0369 26.4464C24.4258 25.6792 22.7406 24.9206 21.2788 24.3527C20.5476 24.0686 19.8916 23.8398 19.3413 23.6821C18.7671 23.5175 18.4002 23.4579 18.2132 23.4534C18.0446 23.4493 17.6978 23.4909 17.1395 23.6369C16.6057 23.7764 15.9684 23.987 15.2552 24.2541C13.8298 24.788 12.1889 25.5153 10.6191 26.2577C9.0539 26.9979 7.582 27.7421 6.50005 28.3019C5.9597 28.5815 5.51778 28.8144 5.21173 28.9771C5.05875 29.0585 4.93971 29.1224 4.85939 29.1656C4.81935 29.1871 4.78882 29.2034 4.76861 29.2143C4.75851 29.2197 4.75075 29.2241 4.74584 29.2267C4.74353 29.228 4.74075 29.2296 4.74075 29.2296L4.73955 29.2302C4.00073 29.6313 3.06552 29.3768 2.65098 28.662C2.23656 27.947 2.49938 27.0421 3.23821 26.641L3.23911 26.6407L3.2409 26.6395C3.24244 26.6387 3.24469 26.6376 3.2475 26.6361C3.25329 26.6329 3.26196 26.6284 3.27296 26.6224C3.29502 26.6105 3.32737 26.5929 3.36944 26.5702C3.45368 26.525 3.57692 26.4588 3.73436 26.3751C4.04921 26.2077 4.50155 25.9693 5.05354 25.6837C6.15642 25.113 7.66311 24.3513 9.27203 23.5905C10.8762 22.8319 12.6055 22.0631 14.1479 21.4854C14.9186 21.1968 15.6648 20.9474 16.3392 20.771C16.9889 20.6012 17.6753 20.4707 18.2896 20.4855Z" fill="#272727"/>
<path d="M18.2843 14.2511C19.4736 14.2758 21.2123 14.757 22.9573 15.3371C24.7726 15.9407 26.823 16.7321 28.737 17.5124C30.6547 18.2942 32.4544 19.0726 33.7734 19.6549C34.4332 19.9462 34.974 20.1889 35.3503 20.3591C35.5382 20.4441 35.6855 20.5112 35.7859 20.5571C35.836 20.58 35.8748 20.5979 35.9009 20.6099C35.9139 20.6158 35.9241 20.6204 35.9309 20.6235C35.9342 20.625 35.9369 20.6261 35.9387 20.627L35.9408 20.6281C36.7057 20.9806 37.0315 21.8667 36.6673 22.6068C36.3031 23.3469 35.3877 23.6613 34.6228 23.309L34.621 23.3081L34.5866 23.2922C34.562 23.2809 34.5249 23.2641 34.4766 23.242C34.3795 23.1976 34.2355 23.132 34.0512 23.0486C33.6822 22.8818 33.15 22.6428 32.4998 22.3557C31.1983 21.7811 29.4274 21.0154 27.5458 20.2483C25.6603 19.4797 23.6819 18.7173 21.9605 18.145C20.1687 17.5493 18.8619 17.2323 18.2186 17.219C17.6015 17.2063 16.3355 17.4819 14.5742 18.0447C12.888 18.5835 10.9529 19.3154 9.10844 20.0593C7.26819 20.8015 5.53839 21.5473 4.26736 22.1081C3.63238 22.3883 3.11306 22.6219 2.75314 22.7851C2.57323 22.8667 2.43312 22.9307 2.33848 22.9741C2.29121 22.9958 2.25514 23.0124 2.23122 23.0234C2.21938 23.0289 2.2104 23.0329 2.20456 23.0356C2.20165 23.0369 2.19934 23.0381 2.19797 23.0388L2.19647 23.0394C1.43224 23.393 0.516036 23.0804 0.150441 22.3409C-0.215047 21.6014 0.108296 20.7151 0.872498 20.3614L1.53433 21.7005C0.898451 20.4142 0.873434 20.3634 0.872498 20.3614L0.873397 20.3608L0.875494 20.3599C0.87725 20.3591 0.879775 20.358 0.882985 20.3565C0.88967 20.3534 0.899584 20.3487 0.912346 20.3428C0.937995 20.331 0.975917 20.3137 1.025 20.2912C1.12332 20.2462 1.26756 20.1802 1.45164 20.0967C1.81979 19.9298 2.34889 19.6919 2.99463 19.407C4.28531 18.8375 6.04755 18.0776 7.92828 17.319C9.80487 16.5621 11.8204 15.7981 13.6122 15.2255C15.3287 14.677 17.0687 14.226 18.2843 14.2511Z" fill="#272727"/>
<path fill-rule="evenodd" clip-rule="evenodd" d="M18.2798 8.31335C19.4312 8.33382 21.1417 8.73701 22.8922 9.23586C24.7028 9.75182 26.7496 10.429 28.6624 11.0974C30.5785 11.7669 32.3769 12.4337 33.6952 12.9326C34.3547 13.1821 34.8952 13.3901 35.2712 13.5359C35.459 13.6087 35.6062 13.6659 35.7065 13.7052C35.7565 13.7248 35.7951 13.7399 35.8213 13.7501C35.8342 13.7552 35.8444 13.7594 35.8512 13.762C35.8545 13.7633 35.8572 13.7645 35.859 13.7652L35.8611 13.7658C35.8611 13.7658 36.4363 12.4046 35.862 13.7664C36.6462 14.0762 37.0225 14.9426 36.7024 15.7016C36.3822 16.4604 35.4868 16.8245 34.7025 16.5148L34.7007 16.5142C34.6993 16.5136 34.6968 16.5128 34.6938 16.5116C34.6877 16.5092 34.6784 16.5054 34.6663 16.5006C34.6416 16.4909 34.6045 16.4764 34.556 16.4574C34.4587 16.4193 34.3148 16.3631 34.1303 16.2916C33.761 16.1484 33.2286 15.9434 32.578 15.6972C31.2758 15.2044 29.5036 14.5477 27.6204 13.8896C25.7338 13.2304 23.7518 12.5757 22.0255 12.0837C20.2394 11.5747 18.9046 11.2936 18.2234 11.2815C17.5642 11.2698 16.2666 11.5163 14.5113 11.997C12.8197 12.4603 10.8809 13.0892 9.03534 13.7272C7.19351 14.364 5.46241 15.0034 4.19066 15.4844C3.55528 15.7247 3.03552 15.9251 2.67524 16.0651C2.49515 16.1351 2.35479 16.1902 2.25999 16.2275C2.21268 16.2461 2.17668 16.2603 2.15273 16.2698C2.14076 16.2745 2.13158 16.2779 2.12576 16.2802C2.12295 16.2814 2.11977 16.2829 2.11977 16.2829L2.13265 16.2768C2.1264 16.2793 2.12014 16.2825 2.11348 16.2852C2.10936 16.2869 1.91326 16.3712 1.65268 16.3907C1.57553 16.3965 1.05542 16.4428 0.573189 16.0677C-0.0906489 15.5513 -0.0250881 14.8279 0.0455782 14.5526C0.111321 14.2967 0.232503 14.1234 0.264892 14.0772C0.291259 14.0396 0.315459 14.0088 0.334101 13.9861C0.34376 13.9744 0.353118 13.9637 0.361366 13.9542C0.365493 13.9495 0.369522 13.9449 0.37335 13.9406C0.375257 13.9385 0.377204 13.9363 0.379043 13.9342L0.381739 13.9313L0.382938 13.9296C0.382938 13.9296 0.391817 13.9348 1.50947 14.8895L0.384436 13.9282C0.520255 13.7793 0.680351 13.6637 0.853623 13.5808C0.858748 13.5784 0.863755 13.5757 0.868903 13.5733C0.866505 13.5744 0.864189 13.5755 0.862012 13.5765C0.889939 13.5633 0.918241 13.5511 0.946801 13.5397L0.963579 13.5327C0.970357 13.53 0.98043 13.5262 0.99324 13.5211C1.01892 13.511 1.05683 13.496 1.10589 13.4768C1.20415 13.4381 1.34808 13.3818 1.53194 13.3103C1.89983 13.1674 2.42841 12.9636 3.07372 12.7195C4.3636 12.2316 6.1244 11.5811 8.00318 10.9316C9.87832 10.2833 11.8896 9.62965 13.6757 9.14048C15.3979 8.66881 17.1064 8.29254 18.2798 8.31335ZM2.68543 15.8912L2.68693 15.89L2.68992 15.8871C2.69177 15.8851 2.6937 15.8829 2.69562 15.8807C2.69945 15.8764 2.70347 15.8719 2.7076 15.8671C2.71584 15.8576 2.72491 15.847 2.73457 15.8352C2.73561 15.834 2.73649 15.8325 2.73756 15.8312C2.72089 15.8515 2.70338 15.8715 2.68543 15.8912ZM2.79599 15.754C2.79837 15.7507 2.80135 15.7476 2.80378 15.7442C2.80684 15.7398 2.81033 15.734 2.81486 15.7274C2.80874 15.7363 2.80233 15.7452 2.79599 15.754ZM3.02129 15.2745C3.0218 15.2726 3.02259 15.2707 3.02309 15.2687C3.0236 15.2667 3.02378 15.2644 3.02429 15.2624C3.02328 15.2664 3.02234 15.2705 3.02129 15.2745ZM2.51555 13.7702C2.50886 13.7648 2.50229 13.7589 2.49548 13.7536L2.49248 13.7513C2.50027 13.7573 2.50786 13.7639 2.51555 13.7702ZM0.885981 13.5655L0.884183 13.5661C0.904845 13.5567 0.925802 13.5481 0.946801 13.5397L0.885981 13.5655ZM1.41599 13.4307C1.41058 13.4311 1.40513 13.4319 1.39981 13.4324C1.41036 13.4315 1.421 13.4305 1.43157 13.4298C1.42626 13.4301 1.4209 13.4303 1.41599 13.4307Z" fill="#272727"/>
<path d="M0.853623 13.5808L0.843436 13.5855C0.848093 13.5832 0.854343 13.5801 0.862012 13.5765C0.859161 13.5778 0.856466 13.5795 0.853623 13.5808Z" fill="#272727"/>
<path d="M116.435 0.0510253C117.674 0.0510253 118.735 0.494216 119.62 1.38029C120.54 2.23233 121 3.23781 121 4.39658C121 5.62348 120.54 6.6629 119.62 7.51492C118.735 8.36692 117.674 8.79287 116.435 8.79287C115.162 8.79284 114.082 8.36692 113.198 7.51492C112.313 6.66291 111.871 5.62345 111.871 4.39658C111.871 3.23783 112.313 2.23232 113.198 1.38029C114.082 0.494204 115.162 0.0510578 116.435 0.0510253Z" fill="#272727"/>
<path fill-rule="evenodd" clip-rule="evenodd" d="M18.2717 2.37528C19.0272 2.38491 20.0068 2.55533 20.9882 2.76928C22.0002 2.9899 23.1294 3.28346 24.2291 3.58655C26.506 4.21408 28.5165 4.83916 29.5322 5.0947C30.352 5.301 30.8439 6.11129 30.6308 6.90465C30.4176 7.69798 29.5802 8.17396 28.7604 7.96777C27.7367 7.71022 25.466 7.01418 23.3887 6.44165C22.3113 6.14471 21.2446 5.86846 20.3138 5.66554C19.3526 5.45599 18.6418 5.34897 18.2312 5.34374C17.8512 5.33894 17.062 5.45525 15.9509 5.69685C14.889 5.92776 13.6697 6.24134 12.5057 6.5608C11.3447 6.87945 10.2535 7.19961 9.45149 7.44041C9.05091 7.56069 8.72335 7.66119 8.49634 7.7312C8.38298 7.76616 8.29456 7.79346 8.23478 7.81208C8.20493 7.82138 8.18192 7.82871 8.16647 7.83354C8.15904 7.83586 8.15248 7.83771 8.1482 7.83905C8.1462 7.83967 8.14362 7.84064 8.1413 7.84136C8.1413 7.84136 8.13754 7.84244 8.13441 7.84339C8.13233 7.84403 8.12651 7.84574 8.12273 7.84687C8.1094 7.85053 7.83115 7.9044 7.55857 7.90863C7.1567 7.87999 6.62153 7.67304 6.32028 7.13281C6.08751 6.71522 6.13461 6.32991 6.1528 6.21059C6.1766 6.05458 6.22104 5.93716 6.24268 5.88385C6.25593 5.85124 6.26884 5.8232 6.27954 5.80093C6.28498 5.78959 6.29023 5.77892 6.29512 5.76933L6.3056 5.74904L6.3074 5.74585L6.3086 5.74353C6.31041 5.74438 6.35964 5.76804 7.63886 6.41034L6.3092 5.74266C6.51676 5.35563 6.87574 5.09377 7.27963 4.99062C7.28428 4.98917 7.28927 4.98784 7.29431 4.98627C7.35659 4.96687 7.44795 4.93844 7.56456 4.90248C7.79789 4.83053 8.13312 4.72785 8.54218 4.60503C9.35966 4.35958 10.4763 4.03208 11.6686 3.70484C12.8579 3.37841 14.138 3.04826 15.2783 2.8003C16.3691 2.5631 17.4855 2.36529 18.2717 2.37528ZM9.03264 7.10933L9.03324 7.10846L9.03354 7.1073L9.03264 7.10933ZM9.03354 7.1073L9.03564 7.10382C9.03676 7.1017 9.03808 7.09935 9.03923 7.09715C9.04153 7.09275 9.0437 7.08799 9.04612 7.08323C9.05098 7.0737 9.05629 7.06318 9.0617 7.05192C9.06243 7.05039 9.06305 7.04858 9.0638 7.04699C9.05418 7.06717 9.04418 7.08736 9.03354 7.1073Z" fill="#272727"/>
</svg>
